<svg width="261" height="64" viewBox="0 0 261 64" fill="none" xmlns="http://www.w3.org/2000/svg">
<path d="M256.256 18.464H252.656V12.08H256.256V18.464ZM256.256 49.088H252.656V21.728H256.256V49.088Z" fill="#393939"/>
<path d="M248.814 35.36V35.552V49.088H245.262V44.816C242.286 48.208 238.638 49.84 234.318 49.712C230.542 49.584 227.326 48.128 224.67 45.344C222.014 42.56 220.686 39.248 220.686 35.408C220.686 31.408 222.11 27.984 224.958 25.136C227.806 22.256 231.214 20.896 235.182 21.056C239.022 21.184 242.286 22.656 244.974 25.472C247.662 28.256 248.942 31.552 248.814 35.36ZM245.166 35.072C245.102 32.192 244.078 29.728 242.094 27.68C240.11 25.632 237.726 24.608 234.942 24.608C232.03 24.608 229.55 25.632 227.502 27.68C225.454 29.728 224.414 32.208 224.382 35.12C224.318 38 225.262 40.528 227.214 42.704C229.198 44.848 231.582 45.984 234.366 46.112C237.374 46.24 239.934 45.2 242.046 42.992C244.19 40.752 245.23 38.112 245.166 35.072Z" fill="#393939"/>
<path d="M219.179 49.568H215.531V43.184H219.179V49.568Z" fill="#393939"/>
<path d="M213.898 36.656H189.322C189.61 39.408 190.778 41.68 192.826 43.472C194.874 45.264 197.29 46.144 200.074 46.112C204.394 46.048 207.482 44.048 209.338 40.112H213.226C212.202 43.056 210.474 45.392 208.042 47.12C205.61 48.848 202.906 49.728 199.93 49.76C196.186 49.824 192.874 48.464 189.994 45.68C187.114 42.864 185.642 39.52 185.578 35.648C185.482 31.552 186.922 28.032 189.898 25.088C192.906 22.112 196.442 20.736 200.506 20.96C204.154 21.184 207.322 22.688 210.01 25.472C212.602 28.224 213.898 31.296 213.898 34.688V36.656ZM210.298 33.296C209.786 30.736 208.586 28.672 206.698 27.104C204.81 25.504 202.554 24.688 199.93 24.656C197.306 24.624 195.002 25.408 193.018 27.008C191.066 28.608 189.834 30.704 189.322 33.296H210.298Z" fill="#393939"/>
<path d="M183.266 40.928C183.458 43.392 182.594 45.536 180.674 47.36C178.754 49.152 176.545 49.968 174.049 49.808C171.745 49.648 169.81 48.72 168.242 47.024C166.706 45.328 165.938 43.312 165.938 40.976H169.73V41.888C169.73 42.816 170.242 43.776 171.266 44.768C172.29 45.76 173.377 46.24 174.529 46.208C176.065 46.176 177.282 45.712 178.178 44.816C178.978 43.984 179.394 42.896 179.426 41.552C179.458 39.216 178.129 37.616 175.441 36.752L172.225 35.744C168.865 34.688 167.105 32.4 166.945 28.88C166.849 26.768 167.553 24.96 169.057 23.456C170.593 21.952 172.433 21.152 174.577 21.056C176.433 20.96 178.162 21.568 179.762 22.88C181.394 24.16 182.274 25.76 182.402 27.68L182.449 28.496H178.609V27.872C178.609 26.912 178.193 26.144 177.361 25.568C176.561 24.96 175.633 24.656 174.577 24.656C173.553 24.688 172.657 25.056 171.889 25.76C171.153 26.464 170.77 27.344 170.738 28.4C170.61 30.352 171.778 31.744 174.242 32.576L177.41 33.632C181.058 34.88 183.01 37.312 183.266 40.928Z" fill="#393939"/>
<path d="M162.096 35.3167V35.5087V49.0447H158.544V44.7727C155.568 48.1647 151.92 49.7967 147.6 49.6687C143.824 49.5407 140.608 48.0847 137.952 45.3007C135.296 42.5167 133.968 39.2047 133.968 35.3647C133.968 31.3647 135.392 27.9407 138.24 25.0927C141.088 22.2127 144.496 20.8527 148.464 21.0127C152.304 21.1407 155.568 22.6127 158.256 25.4287C160.944 28.2127 162.224 31.5087 162.096 35.3167ZM158.448 35.0287C158.384 32.1487 157.36 29.6847 155.376 27.6367C153.392 25.5887 151.008 24.5647 148.224 24.5647C145.312 24.5647 142.832 25.5887 140.784 27.6367C138.736 29.6847 137.696 32.1647 137.664 35.0767C137.6 37.9567 138.544 40.4847 140.496 42.6607C142.48 44.8047 144.864 45.9407 147.648 46.0687C150.656 46.1967 153.216 45.1567 155.328 42.9487C157.472 40.7087 158.512 38.0687 158.448 35.0287Z" fill="#7371D8"/>
<path d="M99.4762 36.656H74.9002C75.1882 39.408 76.3562 41.68 78.4042 43.472C80.4522 45.264 82.8682 46.144 85.6522 46.112C89.9722 46.048 93.0602 44.048 94.9162 40.112H98.8042C97.7802 43.056 96.0522 45.392 93.6202 47.12C91.1882 48.848 88.4842 49.728 85.5082 49.76C81.7642 49.824 78.4522 48.464 75.5722 45.68C72.6922 42.864 71.2202 39.52 71.1562 35.648C71.0602 31.552 72.5002 28.032 75.4762 25.088C78.4842 22.112 82.0202 20.736 86.0842 20.96C89.7322 21.184 92.9002 22.688 95.5882 25.472C98.1802 28.224 99.4762 31.296 99.4762 34.688V36.656ZM95.8762 33.296C95.3642 30.736 94.1642 28.672 92.2762 27.104C90.3882 25.504 88.1322 24.688 85.5082 24.656C82.8842 24.624 80.5802 25.408 78.5962 27.008C76.6442 28.608 75.4122 30.704 74.9002 33.296H95.8762Z" fill="#393939"/>
<path d="M68.8436 40.928C69.0356 43.392 68.1716 45.536 66.2516 47.36C64.3316 49.152 62.1236 49.968 59.6276 49.808C57.3236 49.648 55.3876 48.72 53.8196 47.024C52.2836 45.328 51.5156 43.312 51.5156 40.976H55.3076V41.888C55.3076 42.816 55.8196 43.776 56.8436 44.768C57.8676 45.76 58.9556 46.24 60.1076 46.208C61.6436 46.176 62.8596 45.712 63.7556 44.816C64.5556 43.984 64.9716 42.896 65.0036 41.552C65.0356 39.216 63.7076 37.616 61.0196 36.752L57.8036 35.744C54.4436 34.688 52.6836 32.4 52.5236 28.88C52.4276 26.768 53.1316 24.96 54.6356 23.456C56.1716 21.952 58.0116 21.152 60.1556 21.056C62.0116 20.96 63.7396 21.568 65.3396 22.88C66.9716 24.16 67.8516 25.76 67.9796 27.68L68.0276 28.496H64.1876V27.872C64.1876 26.912 63.7716 26.144 62.9396 25.568C62.1396 24.96 61.2116 24.656 60.1556 24.656C59.1316 24.688 58.2356 25.056 57.4676 25.76C56.7316 26.464 56.3476 27.344 56.3156 28.4C56.1876 30.352 57.3556 31.744 59.8196 32.576L62.9876 33.632C66.6356 34.88 68.5876 37.312 68.8436 40.928Z" fill="#393939"/>
<path d="M47.475 18.464H43.875V12.08H47.475V18.464ZM47.475 49.088H43.875V21.728H47.475V49.088Z" fill="#393939"/>
<path d="M40.656 21.728L30.384 49.088H26.112L20.16 30.992L14.544 49.088H10.368L0 21.728H3.888L12.384 44.528L18.72 25.04H21.84L28.08 44.384L36.72 21.728H40.656Z" fill="#393939"/>
<path fill-rule="evenodd" clip-rule="evenodd" d="M106 12L106.254 12.2734V25.904C108.942 22.8 112.302 21.184 116.334 21.056C120.27 20.896 123.662 22.256 126.51 25.136C129.39 28.016 130.83 31.44 130.83 35.408C130.83 39.248 129.502 42.56 126.846 45.344C124.19 48.128 120.958 49.584 117.15 49.712C113.214 49.84 109.79 48.464 106.878 45.584C103.966 42.704 102.558 39.296 102.654 35.36V13.061C102.011 11.9567 100 7.93163 100 1.00074C100 0.621768 100.294 0.275842 100.76 0.105808C101.225 -0.0641083 101.782 -0.0271954 102.2 0.200844L112.64 5.89562C114.909 5.4127 122.448 4.00076 133 4.00076C143.552 4.00076 151.091 5.4127 153.36 5.89574L163.8 0.200961C164.217 -0.0270782 164.772 -0.0641082 165.24 0.105925C165.706 0.275842 166 0.621885 166 1.00086C166 9.1436 163.223 13.2754 163.104 13.4474C163.104 13.4474 163.101 13.4542 163.095 13.4676C162.925 13.8108 160.612 18.5022 161.861 24.858C161.969 25.4051 161.446 25.912 160.695 25.99C160.628 25.997 160.563 26 160.499 26C159.825 26 159.236 25.64 159.139 25.142C157.728 17.9592 160.481 12.8434 160.598 12.6284L160.601 12.6226C160.72 12.44 162.796 9.22777 163.187 3.03575L154.45 7.80056C154.09 7.99754 153.621 8.0525 153.192 7.9495C153.109 7.92958 144.976 6.00062 133 6.00062C121.024 6.00062 112.889 7.92946 112.808 7.9495C112.379 8.0525 111.91 7.99754 111.55 7.80056L102.813 3.03575C103.194 9.06345 105.775 11.7646 106 12ZM123.966 27.728C126.014 29.776 127.07 32.24 127.134 35.12C127.166 38.032 126.206 40.56 124.254 42.704C122.302 44.848 119.918 45.984 117.102 46.112C114.126 46.24 111.566 45.2 109.422 42.992C107.278 40.752 106.254 38.112 106.35 35.072C106.414 32.192 107.438 29.728 109.422 27.68C111.406 25.632 113.79 24.608 116.574 24.608C119.486 24.608 121.95 25.648 123.966 27.728Z" fill="#7371D8"/>
<path d="M140.288 50.169C139.551 49.861 138.559 48.9859 138.069 49.446L133 54.1973L127.931 49.446C127.44 48.9861 126.446 49.861 125.712 50.169C124.977 50.4749 124.779 51.0958 125.269 51.5558L131.669 57.5551C131.965 57.833 132.464 58 133 58C133.534 58 134.034 57.833 134.331 57.5551L140.731 51.5558C141.221 51.0959 141.023 50.4749 140.288 50.169Z" fill="#7371D8"/>
<path d="M121 35C121 37.2091 119.209 39 117 39C114.791 39 113 37.2091 113 35C113 32.7909 114.791 31 117 31C119.209 31 121 32.7909 121 35Z" fill="#7371D8"/>
<path d="M152 35C152 37.2091 150.209 39 148 39C145.791 39 144 37.2091 144 35C144 32.7909 145.791 31 148 31C150.209 31 152 32.7909 152 35Z" fill="#7371D8"/>
</svg>
